<svg xmlns="http://www.w3.org/2000/svg" viewBox="0 0 1920 1080">
	<defs>
		<style>
			.cls-1{fill:#ffd300;}.cls-2{fill:#51591b;}.cls-3{fill:#0792af;}.cls-4{fill:#097d8c;}.cls-5{fill:#cd0000;}.cls-6{fill:#3c3f14;}.cls-7{fill:#a80404;}.cls-8{fill:#111;}.cls-9{opacity:0.33;}
		</style>
	</defs>
	<g id="Layer_1" data-name="Layer 1">
		<rect class="cls-2" x="744" y="468" width="697" height="109" transform="translate(93.75 1207.38) rotate(-60)" />
		<rect class="cls-3" x="570" y="194" width="697" height="109" />
		<polygon class="cls-4" points="618 194 700 303 618 303 618 194" />
		<rect class="cls-5" x="690.77" y="174.39" width="109" height="697" transform="translate(-161.6 442.69) rotate(-30)" />
		<rect class="cls-2" x="780.92" y="531.94" width="550.26" height="109" transform="translate(20.16 1207.78) rotate(-60)" />
		<polygon class="cls-6" points="1267 303 1146 321 1156.3 303 1267 303" />
		<polygon class="cls-7" points="871 797 907 832 920 825 871 797" />
	</g>
	<g id="S">
		<path class="cls-8" d="M737.65,747.81Q721.76,764.12,712,768.7t-23.84,4.58q-27.68,0-44.44-16T627,704V633.68q0-37.7,16.78-53.75t44.44-16q21.19,0,35.62,9.68t22.07,32.35q7.65,22.68,15.9,30.83,17.07,15.79,60.63,32.1t95.37,16.3q80.65,0,132.46-32.61,33-19.86,33-48.91,0-19.36-15.89-36.43t-51.81-28.28Q992,531.28,910.14,518q-98.89-15.79-149.53-38.22t-80.06-63.17q-29.44-40.77-29.43-88.15,0-74.9,72.4-131.19T911.9,141q46.5,0,86.25,8.92t72.11,27.25q23.54-19.86,47.1-19.87,26.49,0,43.26,16t16.78,53.24v78.47q0,37.71-16.78,53.75t-43.26,16.05q-22.38,0-38.86-11.72-12.95-8.65-19.42-34.65t-16.49-37.19q-17.08-19.35-51.21-32.61t-78.89-13.24q-65.34,0-103.31,26.24t-38,54.77q0,19.37,15.6,37.44t45.62,28.28q20,7.14,112.74,22.93t142.46,34.64q49.74,18.86,82.71,59.1t33,95.79q0,77.45-63,123.81-83.61,61.14-213.11,61.14a451.52,451.52,0,0,1-97.43-10.45A441.65,441.65,0,0,1,737.65,747.81Z" />
		<g class="cls-9">
			<path class="cls-8" d="M748.35,760.22q-15.9,16.31-25.61,20.89T698.9,785.7q-27.67,0-44.45-16.05t-16.78-53.24V646.09q0-37.7,16.78-53.75t44.45-16.05q21.2,0,35.61,9.68t22.08,32.36q7.63,22.67,15.89,30.82,17.07,15.79,60.64,32.1t95.37,16.3q80.64,0,132.45-32.6,33-19.87,33-48.92,0-19.35-15.9-36.42t-51.8-28.28q-23.55-7.65-105.38-20.89-98.9-15.78-149.52-38.21t-80.06-63.18q-29.44-40.76-29.44-88.14,0-74.9,72.41-131.2t188.38-56.3q46.5,0,86.24,8.92T1081,189.59q23.54-19.87,47.09-19.87,26.49,0,43.27,16.05T1188.1,239v78.46q0,37.71-16.78,53.75t-43.27,16q-22.38,0-38.85-11.72-13-8.66-19.43-34.64t-16.48-37.2q-17.08-19.35-51.22-32.6t-78.88-13.25q-65.34,0-103.32,26.24t-38,54.77q0,19.36,15.6,37.45t45.63,28.27q20,7.16,112.73,22.93t142.46,34.65q49.74,18.85,82.71,59.1t33,95.78q0,77.46-63,123.81Q1067.42,802,937.91,802a451.38,451.38,0,0,1-97.43-10.44A441.49,441.49,0,0,1,748.35,760.22Z" />
		</g>
	</g>
</svg>
