<svg xmlns="http://www.w3.org/2000/svg" viewBox="0 0 368.18 331.28"><defs><style>.cls-1{fill:#51591b;}.cls-2{fill:#0792af;}.cls-3{fill:#097d8c;}.cls-4{fill:#cd0000;}.cls-5{fill:#3c3f14;}.cls-6{fill:#a80404;}.cls-7{fill:#111;}.cls-8{opacity:0.33;}</style></defs><g id="Layer_2" data-name="Layer 2"><g id="S"><rect class="cls-1" x="102.6" y="152.37" width="324.78" height="50.79" transform="translate(-21.46 318.37) rotate(-60)"/><rect class="cls-2" x="21.52" y="24.7" width="324.78" height="50.79"/><polygon class="cls-3" points="43.88 24.7 82.09 75.49 43.88 75.49 43.88 24.7"/><rect class="cls-4" x="77.79" y="15.56" width="50.79" height="324.78" transform="translate(-75.15 75.43) rotate(-30)"/><rect class="cls-1" x="119.8" y="182.16" width="256.4" height="50.79" transform="matrix(0.5, -0.87, 0.87, 0.5, -55.75, 318.56)"/><polygon class="cls-5" points="346.3 75.49 289.92 83.88 294.71 75.49 346.3 75.49"/><polygon class="cls-6" points="161.77 305.68 178.55 321.99 184.61 318.73 161.77 305.68"/><path class="cls-7" d="M99.64,282.76q-7.41,7.59-11.93,9.73a26,26,0,0,1-11.11,2.14q-12.9,0-20.71-7.48t-7.82-24.81V229.58q0-17.58,7.82-25.05t20.71-7.48q9.87,0,16.59,4.51t10.29,15.08Q107,227.2,110.88,231q8,7.37,28.26,15a125.91,125.91,0,0,0,44.44,7.59q37.57,0,61.72-15.19,15.36-9.26,15.36-22.79,0-9-7.41-17t-24.14-13.17q-11-3.57-49.1-9.74-46.08-7.35-69.67-17.8T73,128.44q-13.72-19-13.72-41.07,0-34.91,33.74-61.14T180.83,0A184.05,184.05,0,0,1,221,4.15a122,122,0,0,1,33.6,12.71q11-9.27,21.95-9.26,12.35,0,20.16,7.48t7.82,24.8V76.45q0,17.56-7.82,25T276.57,109a30.45,30.45,0,0,1-18.11-5.46q-6-4-9-16.14T241.73,70q-7.95-9-23.86-15.2t-36.76-6.17q-30.45,0-48.14,12.23t-17.7,25.52q0,9,7.27,17.45T143.8,117q9.33,3.33,52.53,10.69t66.39,16.14a90.34,90.34,0,0,1,38.54,27.54q15.36,18.75,15.36,44.63,0,36.09-29.35,57.69-39,28.5-99.3,28.49a210.56,210.56,0,0,1-45.4-4.86A206.15,206.15,0,0,1,99.64,282.76Z"/><g class="cls-8"><path class="cls-7" d="M104.62,288.54q-7.41,7.6-11.93,9.73a25.84,25.84,0,0,1-11.11,2.14q-12.9,0-20.71-7.48t-7.82-24.81V235.36q0-17.56,7.82-25.05t20.71-7.48q9.87,0,16.6,4.52t10.28,15.07Q112,233,115.87,236.78q7.95,7.36,28.25,15a125.73,125.73,0,0,0,44.44,7.6q37.58,0,61.72-15.2,15.36-9.25,15.36-22.79,0-9-7.4-17T234.1,191.2q-11-3.55-49.1-9.73-46.09-7.36-69.68-17.81T78,134.22q-13.71-19-13.71-41.07Q64.3,58.26,98,32T185.82,5.78A183.39,183.39,0,0,1,226,9.94a121.8,121.8,0,0,1,33.61,12.7q11-9.26,21.94-9.26,12.34,0,20.16,7.48t7.82,24.81V82.23q0,17.58-7.82,25t-20.16,7.48a30.42,30.42,0,0,1-18.1-5.46q-6-4-9-16.15t-7.68-17.33q-8-9-23.87-15.19t-36.76-6.18q-30.45,0-48.14,12.23T120.26,92.2q0,9,7.27,17.45t21.26,13.18q9.32,3.33,52.53,10.68t66.38,16.15a90.18,90.18,0,0,1,38.54,27.53Q321.6,196,321.6,221.83q0,36.09-29.35,57.69Q253.29,308,193,308a210.56,210.56,0,0,1-45.4-4.87A205.77,205.77,0,0,1,104.62,288.54Z"/></g></g></g></svg>